<?xml version="1.0" encoding="utf-8"?>
<!-- Generator: Adobe Illustrator 27.0.0, SVG Export Plug-In . SVG Version: 6.00 Build 0)  -->
<svg version="1.1" id="Layer_1" xmlns="http://www.w3.org/2000/svg" xmlns:xlink="http://www.w3.org/1999/xlink" x="0px" y="0px"
	 viewBox="0 0 102.2 61.4" style="enable-background:new 0 0 102.2 61.4;" xml:space="preserve">
<style type="text/css">
	.st0{enable-background:new    ;}
	.st1{fill:#4D7988;}
	.st2{fill:none;stroke:#1E354B;stroke-width:4;stroke-miterlimit:10;}
</style>
<g>
	<g class="st0">
		<path class="st1" d="M16.5,24c0,0.7,0.3,1.3,0.9,1.7c0.6,0.4,1.4,0.8,2.3,1.1c0.9,0.3,1.9,0.6,3,1s2.1,0.8,3,1.3
			c0.9,0.5,1.7,1.2,2.3,2.1s0.9,2,0.9,3.4c0,1.8-0.5,3.3-1.4,4.5c-1,1.2-2.3,2.1-3.9,2.7c-1.7,0.6-3.5,0.9-5.5,0.9
			c-1.2,0-2.5-0.1-3.9-0.3s-2.7-0.5-4.1-0.9l0.3-6.8h4l0.5,4l-0.5-0.8c0.6,0.2,1.3,0.3,2,0.4c0.7,0.1,1.4,0.2,1.9,0.2
			c0.7,0,1.5-0.1,2.1-0.3s1.2-0.5,1.7-0.9c0.4-0.4,0.7-0.9,0.7-1.5c0-0.8-0.3-1.3-0.9-1.8s-1.4-0.8-2.3-1.1c-0.9-0.3-1.9-0.6-3-0.9
			c-1.1-0.3-2-0.7-3-1.3c-0.9-0.5-1.7-1.3-2.3-2.1s-0.9-2.1-0.9-3.5c0-1.7,0.4-3.2,1.3-4.3c0.9-1.1,2-1.9,3.5-2.4
			c1.5-0.5,3.1-0.8,4.8-0.8c1.2,0,2.5,0.1,3.9,0.3c1.4,0.2,2.8,0.5,4.3,0.9l-0.3,6.1h-3.9l-0.8-3.6l0.9,0.9
			c-1.4-0.3-2.7-0.5-3.8-0.5c-1.1,0-2,0.2-2.7,0.6C16.9,22.6,16.5,23.2,16.5,24z"/>
		<path class="st1" d="M55,21.6l-0.9,0.2c1.4-1.5,3-2.6,4.6-3.3c1.6-0.7,3.2-1.1,4.6-1.1c1.9,0,3.5,0.6,4.7,1.9
			c1.3,1.2,1.9,3.2,1.9,5.7v13.5l-0.6-0.9l3.6,1.1V42H61.2v-3.2l3.3-1l-0.8,0.9V26.4c0-1.4-0.3-2.5-0.9-3.2s-1.3-1-2.3-1
			c-0.8,0-1.7,0.2-2.6,0.7c-1,0.5-1.9,1.2-2.9,2.1l0.5-1.4c0.1,0.2,0.1,0.5,0.1,0.7s0,0.4,0,0.5v13.8L55,37.6l3.1,1.1V42H46.7v-3.2
			l3.3-1l-0.7,0.9V26.4c0-1.4-0.3-2.5-0.9-3.2c-0.6-0.7-1.4-1-2.2-1c-0.8,0-1.7,0.2-2.6,0.7c-1,0.5-1.9,1.1-2.8,2l0.4-0.9v14.8
			l-0.6-0.9l3.1,1V42H31.8v-3.2l3.8-1.1l-0.8,0.9V21.4l0.8,1l-3.8-1.1v-3.2l7.9-0.4l0.8,4.3l-0.8-0.3c1.4-1.4,2.9-2.5,4.5-3.2
			c1.6-0.7,3.1-1.1,4.6-1.1c1.4,0,2.6,0.3,3.7,1C53.6,19.1,54.4,20.1,55,21.6z"/>
		<path class="st1" d="M81.6,24c0,0.7,0.3,1.3,0.9,1.7s1.4,0.8,2.3,1.1c0.9,0.3,1.9,0.6,3,1c1.1,0.3,2.1,0.8,3,1.3
			c0.9,0.5,1.7,1.2,2.3,2.1c0.6,0.9,0.9,2,0.9,3.4c0,1.8-0.5,3.3-1.4,4.5s-2.3,2.1-3.9,2.7c-1.7,0.6-3.5,0.9-5.5,0.9
			c-1.2,0-2.5-0.1-3.9-0.3c-1.4-0.2-2.7-0.5-4.1-0.9l0.3-6.8h4l0.5,4l-0.5-0.8c0.6,0.2,1.3,0.3,2,0.4c0.7,0.1,1.4,0.2,1.9,0.2
			c0.7,0,1.5-0.1,2.1-0.3s1.2-0.5,1.7-0.9c0.4-0.4,0.7-0.9,0.7-1.5c0-0.8-0.3-1.3-0.9-1.8s-1.3-0.8-2.3-1.1c-0.9-0.3-1.9-0.6-3-0.9
			c-1.1-0.3-2-0.7-3-1.3c-0.9-0.5-1.7-1.3-2.3-2.1c-0.6-0.9-0.9-2.1-0.9-3.5c0-1.7,0.4-3.2,1.3-4.3c0.9-1.1,2-1.9,3.5-2.4
			s3.1-0.8,4.8-0.8c1.2,0,2.5,0.1,3.9,0.3c1.4,0.2,2.8,0.5,4.3,0.9l-0.3,6.1H89l-0.8-3.6l0.9,0.9c-1.4-0.3-2.7-0.5-3.8-0.5
			c-1.1,0-2,0.2-2.7,0.6C82,22.6,81.6,23.2,81.6,24z"/>
	</g>
</g>
<path class="st2" d="M14,2h74.2c6.6,0,12,5.4,12,12v33.4c0,6.6-5.4,12-12,12H14c-6.6,0-12-5.4-12-12V14C2,7.4,7.4,2,14,2z"/>
</svg>
